<?xml version="1.0" encoding="UTF-8"?>
<svg version="1.1" xmlns="http://www.w3.org/2000/svg" width="363" height="350">
<path d="M0 0 C10.09215435 -0.70192727 16.09663424 0.26330732 23.9765625 6.5859375 C30.02171608 12.10123698 34.22053712 19.01689964 38.60546875 25.84814453 C40.59136632 28.91251799 42.63384671 31.93785152 44.67285156 34.96704102 C48.70456799 40.96281497 52.6726162 46.96241086 56.32421875 53.19921875 C64.23228372 66.41619447 72.71735303 79.31279015 81.09765625 92.234375 C85.71064764 99.36734899 90.25177073 106.54408028 94.75 113.75 C95.29301758 114.61310791 95.83603516 115.47621582 96.39550781 116.36547852 C99.50863143 121.37431647 102.26982671 126.44161895 104.85595703 131.74023438 C106.38717102 134.76475778 108.18218277 137.55633563 110.0625 140.375 C114.24222112 146.73786719 118.17262514 153.22992242 122.0625 159.77319336 C124.97237407 164.65496178 127.92540891 169.50472707 130.9375 174.32421875 C137.72914052 185.20102619 144.30871336 196.06258986 150.11376953 207.50170898 C152.72655168 212.638393 155.5056531 217.61657134 158.47216797 222.55737305 C164.95955327 233.37148334 171.63034644 245.06015004 168.484375 258.14453125 C166.02814266 261.21482167 162.57302871 261.17619253 158.875 261.625 C157.57025475 261.78660614 157.57025475 261.78660614 156.239151 261.95147705 C146.73892287 263.02783945 137.23677735 263.59578215 127.69140625 264.0703125 C126.39461347 264.13546177 126.39461347 264.13546177 125.07162285 264.20192719 C106.26145862 265.12736139 87.47607236 265.31851061 68.64627075 265.25774765 C66.00620436 265.24983119 63.36614961 265.24536054 60.72607422 265.24160767 C-57.36444738 265.04696756 -57.36444738 265.04696756 -77 258 C-77.99 256.515 -77.99 256.515 -79 255 C-73.63897484 245.75034392 -67.07925114 237.96270449 -60 230 C-57.10880618 230.68100845 -54.76499351 231.57641385 -52.125 232.9375 C-10.26333889 251.51277085 74.76181159 239.85957662 119 232 C119.66 231.67 120.32 231.34 121 231 C120.40336458 226.1227422 118.27060823 222.41833792 115.9375 218.1875 C115.11306126 216.66228009 114.29017847 215.13621824 113.46875 213.609375 C113.05367187 212.83916016 112.63859375 212.06894531 112.2109375 211.27539062 C109.73753695 206.62779121 107.4159071 201.90427924 105.07714844 197.18798828 C104.73377441 196.495802 104.39040039 195.80361572 104.03662109 195.0904541 C103.38162817 193.76959285 102.72696251 192.44856923 102.07275391 191.12731934 C96.96513458 180.81874979 91.70095806 170.60190011 86.3125 160.4375 C85.9245929 159.70420471 85.53668579 158.97090942 85.13702393 158.21539307 C79.68055024 147.90785218 74.0761838 137.70652796 68.27734375 127.58691406 C64.93741146 121.73560961 61.8305571 115.81751391 58.87329102 109.76538086 C54.89886437 101.67032508 50.43550275 93.84884467 46 86 C44.97655672 84.18489909 43.95311944 82.3697948 42.9296875 80.5546875 C40.18938048 75.69895345 37.44298932 70.84668376 34.6953125 65.99511719 C32.9825309 62.96913725 31.27211628 59.94183178 29.5625 56.9140625 C29.00167725 55.92100098 28.44085449 54.92793945 27.86303711 53.90478516 C26.75419094 51.94107886 25.64562548 49.97721402 24.53735352 48.01318359 C22.25852373 43.97843126 19.97683565 39.9461559 17.65234375 35.9375 C13.71144211 29.13903012 10.06503811 22.2649287 6.609375 15.2109375 C4.82237016 11.64560259 2.88548772 8.19649543 0.84765625 4.76953125 C0 3 0 3 0 0 Z " fill="#8695A3" transform="translate(185,12)"/>
<path d="M0 0 C8.70504821 16.39591605 8.70504821 16.39591605 9.1875 25.5625 C7.72275538 29.8025502 5.51269509 32.00350426 2.453125 35.22265625 C-0.52881604 38.59870733 -3.07710213 42.16590752 -5.625 45.875 C-6.06763184 46.51042725 -6.51026367 47.14585449 -6.96630859 47.80053711 C-10.10696573 52.41066007 -12.77956822 57.19583898 -15.41552734 62.10888672 C-18.11943294 67.04257703 -21.06269761 71.82783366 -24 76.625 C-24.59039062 77.59695312 -25.18078125 78.56890625 -25.7890625 79.5703125 C-28.43822055 83.91166402 -31.11597952 88.21628937 -33.96484375 92.4296875 C-37.71114523 97.99011839 -41.12646679 103.74455821 -44.5625 109.5 C-45.20896484 110.57636719 -45.85542969 111.65273437 -46.52148438 112.76171875 C-50.12648796 118.78350501 -53.62600088 124.84633167 -57 131 C-58.43179454 133.56570961 -59.87191664 136.12671642 -61.3125 138.6875 C-61.69567383 139.3688501 -62.07884766 140.0502002 -62.47363281 140.75219727 C-64.71263697 144.7285028 -66.96367572 148.69760398 -69.23120117 152.65771484 C-70.22438533 154.39275259 -71.21380583 156.12994304 -72.203125 157.8671875 C-73.3226681 159.81908656 -74.45578984 161.76333736 -75.609375 163.6953125 C-76.06828125 164.47648438 -76.5271875 165.25765625 -77 166.0625 C-77.391875 166.71347656 -77.78375 167.36445313 -78.1875 168.03515625 C-79.18783027 170.45422417 -79.14376424 172.40775109 -79 175 C-72.80062815 177.32015026 -66.93235979 178.63316038 -60.359375 179.31640625 C-58.99767937 179.46857857 -58.99767937 179.46857857 -57.60847473 179.62382507 C-54.65680817 179.94878106 -51.70374016 180.25700536 -48.75 180.5625 C-47.22401688 180.7244989 -47.22401688 180.7244989 -45.66720581 180.88977051 C-31.98333634 182.33664349 -18.30470725 183.53602769 -4.5625 184.25 C-3.89061646 184.28497589 -3.21873291 184.31995178 -2.52648926 184.35598755 C1.74049746 184.5702056 6.00835401 184.74375809 10.27783203 184.8999939 C12.2569235 184.9727011 14.23591616 185.04811372 16.21484375 185.12515259 C36.57421634 185.90960175 56.91047343 186.20091479 77.28397751 186.18888092 C79.66475246 186.18747655 82.04552474 186.18758525 84.42630005 186.18768311 C103.94353328 186.18172537 123.43713843 186.02244589 142.9375 185.125 C143.81037659 185.08579437 144.68325317 185.04658875 145.58258057 185.00619507 C155.14391463 184.55971797 164.62967943 183.81640614 174.13206482 182.65408325 C177.77814963 182.21196916 181.32587038 181.89285102 185 182 C184.33948828 188.7702451 181.71764128 193.68486624 176.75 198.1875 C167.33045008 205.71912307 156.68111746 207.23879966 145 208.5 C143.83154541 208.62745605 142.66309082 208.75491211 141.45922852 208.88623047 C132.2980845 209.84357213 123.12913019 210.55130413 113.9375 211.125 C112.73544922 211.20041016 111.53339844 211.27582031 110.29492188 211.35351562 C86.92322771 212.7210739 63.53062882 213.23356408 40.125 213.5625 C38.67922946 213.58320197 37.2334592 213.60392361 35.78768921 213.62466431 C27.38267496 213.74437115 18.97757329 213.85437292 10.57232666 213.9564209 C7.46274393 213.99435495 4.35319993 214.03451474 1.24365234 214.07519531 C-107.99722907 215.43094651 -107.99722907 215.43094651 -127.66796875 198.5703125 C-129.5816261 196.31432934 -129.5910437 194.1565409 -129.47680664 191.27880859 C-128.91186485 188.57877445 -127.90099437 186.81078514 -126.43359375 184.4765625 C-125.88952881 183.60153076 -125.34546387 182.72649902 -124.78491211 181.82495117 C-124.19589111 180.89271729 -123.60687012 179.9604834 -123 179 C-121.78100827 177.03009748 -120.56226503 175.06004117 -119.34375 173.08984375 C-118.06344351 171.03847333 -116.78218317 168.98769794 -115.5 166.9375 C-114.86191406 165.91333984 -114.22382812 164.88917969 -113.56640625 163.83398438 C-110.21365618 158.46889863 -106.81152202 153.15471861 -103.23803711 147.93359375 C-102.01773056 146.02769198 -101.02090853 144.1106877 -100.0625 142.0625 C-98.07979736 137.91684902 -95.50324237 134.32610462 -92.83203125 130.59765625 C-91.10326213 128.14641645 -89.47488219 125.6617859 -87.875 123.125 C-79.91718595 110.52067708 -71.89498624 97.97330356 -63.1340332 85.90771484 C-60.0410839 81.61490037 -57.29732529 77.19488032 -54.60473633 72.64160156 C-51.76053045 67.95967435 -48.65763725 63.45583363 -45.5625 58.9375 C-44.93279297 58.00873047 -44.30308594 57.07996094 -43.65429688 56.12304688 C-40.12716836 50.95741673 -36.47144483 45.94888726 -32.59643555 41.03930664 C-30.3508435 38.17075941 -28.22853302 35.22351818 -26.125 32.25 C-25.49609863 31.36501831 -25.49609863 31.36501831 -24.85449219 30.4621582 C-18.85900925 22.00609483 -12.91010505 13.51565987 -7.2890625 4.8046875 C-3.85714286 0 -3.85714286 0 0 0 Z " fill="#4E5864" transform="translate(164,102)"/>
<path d="M0 0 C2.93339395 1.49336419 3.90306514 3.60043156 5.55859375 6.421875 C6.0695459 7.28534546 6.0695459 7.28534546 6.59082031 8.16625977 C7.72288957 10.09592328 8.83104581 12.03770353 9.93359375 13.984375 C10.31290039 14.65210938 10.69220703 15.31984375 11.08300781 16.0078125 C16.66095266 25.87040056 22.04425193 35.84211782 27.46289062 45.79272461 C35.24438374 60.07506936 43.17461567 74.26656081 51.30126953 88.35546875 C56.64852227 97.62803898 61.97373629 106.90571159 66.99609375 116.359375 C67.53254517 117.365448 67.53254517 117.365448 68.07983398 118.3918457 C69.63132642 121.34278208 71.05041906 124.26236098 72.34375 127.33984375 C74.39001654 132.03067097 76.8318014 136.44694407 79.30859375 140.921875 C80.38971068 142.88910986 81.47042586 144.85656556 82.55078125 146.82421875 C83.10862305 147.8385498 83.66646484 148.85288086 84.24121094 149.89794922 C86.99256324 154.9156347 89.71254579 159.95021078 92.43359375 164.984375 C95.70449145 171.03245927 98.98080142 177.07735446 102.28125 183.109375 C103.09142578 184.59050781 103.09142578 184.59050781 103.91796875 186.1015625 C104.93622145 187.96163798 105.95566536 189.8210621 106.9765625 191.6796875 C108.30634627 194.10895729 109.62371046 196.54432585 110.93359375 198.984375 C111.33819824 199.72945312 111.74280273 200.47453125 112.15966797 201.2421875 C114.03942472 204.81545592 114.93359375 206.87050967 114.93359375 210.984375 C106.61160952 212.90245315 97.41534333 213.5045987 89.93359375 208.984375 C84.88527946 204.92109765 82.08885873 199.53557716 78.93359375 193.984375 C78.27875 192.85902344 77.62390625 191.73367187 76.94921875 190.57421875 C74.02001789 185.51954864 71.16307582 180.48599583 68.6015625 175.234375 C65.81726093 169.61805007 62.60294714 164.31323511 59.30859375 158.984375 C58.69322754 157.98180664 58.07786133 156.97923828 57.44384766 155.94628906 C56.19583698 153.91314035 54.94634594 151.88089952 53.6953125 149.84960938 C52.12130858 147.28967173 50.55585243 144.72488306 48.99609375 142.15625 C45.37068266 136.18934628 41.74381543 130.22789707 37.97265625 124.3515625 C32.30163066 115.50925774 26.99548974 106.58965073 22.0144043 97.34008789 C18.18776647 90.29733585 13.94339293 83.60228169 9.515625 76.92578125 C7.80458487 74.34237135 6.15843138 71.73497315 4.5703125 69.07421875 C4.02540161 68.16240845 4.02540161 68.16240845 3.46948242 67.23217773 C2.50295964 65.60141256 1.54602396 63.96497586 0.58984375 62.328125 C-0.91679917 59.70521127 -0.91679917 59.70521127 -4.06640625 58.984375 C-6.15931782 59.07009161 -6.15931782 59.07009161 -8.06640625 59.984375 C-8.73921017 61.31462201 -9.40426316 62.64878945 -10.06640625 63.984375 C-11.45172448 65.92382053 -12.87226395 67.83832422 -14.31640625 69.734375 C-15.0640625 70.71921875 -15.81171875 71.7040625 -16.58203125 72.71875 C-16.97793457 73.23880615 -17.37383789 73.7588623 -17.78173828 74.29467773 C-22.19352708 80.09741249 -26.50494079 85.9543878 -30.69140625 91.921875 C-31.74088078 93.41276368 -32.79036009 94.903649 -33.83984375 96.39453125 C-34.91538833 97.92446247 -35.99090913 99.45441041 -37.06640625 100.984375 C-39.1483448 103.94369281 -41.23176797 106.90195841 -43.31640625 109.859375 C-43.81760986 110.57101807 -44.31881348 111.28266113 -44.83520508 112.01586914 C-47.64277503 115.99453586 -50.48922718 119.93965618 -53.37890625 123.859375 C-57.19536095 129.08353841 -60.62895651 134.50636745 -64.06640625 139.984375 C-69.41890534 148.4352241 -74.8639777 156.78979692 -80.69140625 164.921875 C-91.44951012 179.97856556 -101.65986216 195.51825713 -110.88549805 211.56079102 C-113.42906713 215.9693144 -116.19501483 220.11261483 -119.1796875 224.23828125 C-121.66657357 227.85791046 -123.92123948 231.60122002 -126.19140625 235.359375 C-130.40148857 242.2938891 -134.65242043 249.20002823 -139.00390625 256.046875 C-139.81915771 257.35954346 -139.81915771 257.35954346 -140.65087891 258.69873047 C-141.4269751 259.90940186 -141.4269751 259.90940186 -142.21875 261.14453125 C-142.89925415 262.22166382 -142.89925415 262.22166382 -143.59350586 263.32055664 C-145.33773743 265.29087624 -146.50076431 265.61824762 -149.06640625 265.984375 C-152.50765064 259.99127344 -153.72487763 255.61044201 -153.62890625 248.734375 C-153.65275391 247.96480469 -153.67660156 247.19523438 -153.70117188 246.40234375 C-153.67212273 234.64712454 -146.8179247 224.29147374 -141.19140625 214.359375 C-140.53535668 213.19145082 -139.87968437 212.02331465 -139.22436523 210.85498047 C-137.1837353 207.22458007 -135.12741228 203.60323867 -133.06640625 199.984375 C-132.72986023 199.39309814 -132.39331421 198.80182129 -132.04656982 198.19262695 C-119.55543251 176.26174905 -119.55543251 176.26174905 -113.75390625 167.046875 C-110.65826657 162.11382338 -107.97758125 157.03350766 -105.31640625 151.859375 C-101.02001205 143.5305969 -96.19614 135.66232821 -91.12890625 127.78515625 C-88.05055216 122.99280742 -85.10691766 118.12707786 -82.19140625 113.234375 C-77.87825736 106.00044417 -73.52067781 98.79585527 -69.12890625 91.609375 C-64.43246077 83.92104302 -59.81463701 76.19141281 -55.25390625 68.421875 C-48.91024204 57.63356295 -42.34377647 47.06797504 -35.0703125 36.875 C-33.43186486 34.51154727 -31.84761321 32.12982865 -30.28125 29.71875 C-10.88754094 -0.08232545 -10.88754094 -0.08232545 0 0 Z " fill="#0E6EA7" transform="translate(171.06640625,18.015625)"/>
<path d="M0 0 C3.05274621 0.73013556 5.80817869 1.67630967 8.6875 2.9375 C9.47511719 3.27652344 10.26273438 3.61554688 11.07421875 3.96484375 C13 5 13 5 14 7 C14.969375 7.103125 15.93875 7.20625 16.9375 7.3125 C18.4534375 7.6528125 18.4534375 7.6528125 20 8 C20.22042969 8.75539062 20.44085938 9.51078125 20.66796875 10.2890625 C22.729106 14.4838697 26.1841168 15.35540197 30.375 17.0625 C31.19137939 17.40829102 32.00775879 17.75408203 32.84887695 18.11035156 C40.39974099 21.2650473 47.99566317 23.98308456 55.92578125 26.01953125 C56.60165283 26.19387695 57.27752441 26.36822266 57.97387695 26.54785156 C59.89592725 27.03606484 61.82286322 27.50492409 63.75 27.97265625 C66.85083815 28.95284908 68.50628304 30.00739817 71 32 C8.50933688 32.40344588 8.50933688 32.40344588 -9.625 29.625 C-10.3763623 29.51115967 -11.12772461 29.39731934 -11.90185547 29.2800293 C-13.9140625 28.9140625 -13.9140625 28.9140625 -17 28 C-17.66 27.01 -18.32 26.02 -19 25 C-13.63897484 15.75034392 -7.07925114 7.96270449 0 0 Z " fill="#758492" transform="translate(125,242)"/>
<path d="M0 0 C2 2 2 2 2 6 C-6.35213578 7.92502758 -15.45330318 8.45941175 -23 4 C-23.33 3.34 -23.66 2.68 -24 2 C-23.02933594 2.32742187 -22.05867188 2.65484375 -21.05859375 2.9921875 C-16.6989074 4.23781217 -12.56624028 4.2253404 -8.0625 4.125 C-7.28326172 4.11597656 -6.50402344 4.10695312 -5.70117188 4.09765625 C-3.80064553 4.07433691 -1.90027992 4.03847586 0 4 C0 2.68 0 1.36 0 0 Z " fill="#87B9D4" transform="translate(284,223)"/>
<path d="M0 0 C1 2 1 2 0.9375 3.8125 C-0.52058124 7.21468955 -3.08270714 8.76547781 -6 11 C-4.54955729 6.89041233 -2.48889248 3.56741255 0 0 Z " fill="#C4C8CB" transform="translate(69,236)"/>
</svg>
